<?xml version="1.0" encoding="UTF-8" standalone="no"?>
<svg
   version="1.1"
   x="0px"
   y="0px"
   width="500px"
   height="100px"
   viewBox="0 0 500 100"
   id="svg24"
   sodipodi:docname="a71289fa6cf50bc0821b.svg"
   inkscape:version="1.1.2 (b8e25be833, 2022-02-05)"
   xmlns:inkscape="http://www.inkscape.org/namespaces/inkscape"
   xmlns:sodipodi="http://sodipodi.sourceforge.net/DTD/sodipodi-0.dtd"
   xmlns="http://www.w3.org/2000/svg"
   xmlns:svg="http://www.w3.org/2000/svg">
  <defs
     id="defs28">
    <rect
       x="0.47258979"
       y="0"
       width="499.05481"
       height="98.771271"
       id="rect3948" />
  </defs>
  <sodipodi:namedview
     id="namedview26"
     pagecolor="#ffffff"
     bordercolor="#666666"
     borderopacity="1.0"
     inkscape:pageshadow="2"
     inkscape:pageopacity="0.0"
     inkscape:pagecheckerboard="0"
     showgrid="false"
     inkscape:zoom="1.058"
     inkscape:cx="155.48204"
     inkscape:cy="-37.807183"
     inkscape:window-width="1920"
     inkscape:window-height="1017"
     inkscape:window-x="-8"
     inkscape:window-y="-8"
     inkscape:window-maximized="1"
     inkscape:current-layer="svg24" />
  <style
     type="text/css"
     id="style2">
	    path, rect { fill: #FFFF; }
    </style>
  <g
     aria-label="jackmods"
     transform="matrix(2.5752866,0,0,2.7011249,6.1104082,-27.328155)"
     id="text3946"
     style="font-size:40px;line-height:1.25;white-space:pre;shape-inside:url(#rect3948);fill:#ffffff">
    <path
       d="M 2.8554688,16.32012 V 10.968557 H 9.9257813 V 16.32012 H 2.8554688 Z m 7.03125,2.8125 v 20.3125 q 0,3.75 -1.875,5.742187 -1.8750001,1.953125 -5.5859375,1.992188 -1.52343755,0 -2.69531255,-0.15625 Q -1.4023437,46.906057 -2.3789063,46.63262 l 0.5859376,-4.648438 q 0.625,0.117188 1.28906245,0.195313 0.703125,0.117187 1.4453125,0.117187 0.85937495,0 1.36718755,-0.742187 0.5078125,-0.742188 0.5078125,-2.421875 v -20 h 7.0703125 z"
       style="font-family:'Supria Sans Heavy';-inkscape-font-specification:'Supria Sans Heavy, '"
       id="path14787" />
    <path
       d="m 20.003906,32.960745 q 0,0.859375 0.625,1.328125 0.585938,0.429687 1.757813,0.429687 1.210937,0 2.304687,-0.46875 1.09375,-0.507812 1.875,-1.328125 V 30.22637 q -2.578125,0.117187 -4.023437,0.46875 -1.445313,0.390625 -1.992188,0.976562 -0.585937,0.546875 -0.546875,1.289063 z m 0.507813,-6.757813 -6.171875,0.195313 q -0.07813,-0.3125 -0.07813,-0.703125 -0.03906,-0.351563 -0.03906,-0.742188 -0.03906,-2.890625 2.34375,-4.53125 2.34375,-1.640625 7.382813,-1.679687 3.710937,0.03906 5.78125,1.054687 2.070312,1.015625 2.890625,2.65625 0.859375,1.679688 0.820312,3.632813 v 6.875 q 0,0.664062 0.234375,0.976562 0.195313,0.3125 0.625,0.3125 0.507813,0 0.976563,-0.117187 l 0.273437,4.453125 q -0.820312,0.273437 -1.796875,0.429687 -0.976562,0.15625 -1.992187,0.15625 -1.640625,-0.03906 -2.5,-0.507812 -0.859375,-0.46875 -1.171875,-1.171875 -0.351563,-0.703125 -0.390625,-1.40625 h -0.273438 q -0.46875,0.625 -1.445312,1.328125 -0.9375,0.703125 -2.421875,1.210937 -1.484375,0.507813 -3.554688,0.546875 -3.085937,0 -4.882812,-1.328125 -1.796875,-1.289062 -1.835938,-3.90625 -0.03906,-2.03125 1.171875,-3.476562 1.210938,-1.445313 4.140625,-2.265625 2.929688,-0.820313 7.96875,-0.976563 v -1.328125 q 0,-1.171875 -0.742187,-1.835937 -0.742188,-0.703125 -2.265625,-0.703125 -1.601563,0 -2.382813,0.507812 -0.742187,0.546875 -0.742187,1.5625 0,0.15625 0.03906,0.351563 0,0.195312 0.03906,0.429687 z"
       style="font-family:'Supria Sans Heavy';-inkscape-font-specification:'Supria Sans Heavy, '"
       id="path14789" />
    <path
       d="m 37.347656,28.97637 q 0,-2.8125 1.132813,-5.117188 1.171875,-2.304687 3.59375,-3.710937 2.460937,-1.367188 6.328125,-1.40625 3.28125,0.03906 5.234375,0.78125 1.953125,0.742187 2.890625,1.914062 0.976562,1.132813 1.25,2.304688 0.3125,1.171875 0.273437,2.070312 0,0.273438 0,0.546875 -0.03906,0.3125 -0.117187,0.664063 l -6.953125,0.07813 q 0.03906,-0.195313 0.03906,-0.3125 0,-0.15625 0,-0.273438 0.03906,-0.546875 -0.195312,-1.210937 -0.273438,-0.664063 -0.898438,-1.132813 -0.625,-0.507812 -1.835937,-0.507812 -1.054688,-0.03906 -1.835938,0.46875 -0.820312,0.46875 -1.25,1.640625 -0.46875,1.171875 -0.46875,3.203125 0,2.617187 0.9375,3.984375 0.898438,1.328125 2.617188,1.328125 1.210937,-0.03906 1.835937,-0.507813 0.625,-0.507812 0.898438,-1.132812 0.234375,-0.664063 0.195312,-1.210938 0,-0.15625 0,-0.3125 0,-0.117187 -0.03906,-0.273437 l 6.953125,0.03906 q 0.07813,0.351563 0.117187,0.664063 0,0.3125 0,0.585937 0.03906,0.820313 -0.273437,1.992188 -0.273438,1.132812 -1.25,2.304687 -0.9375,1.132813 -2.890625,1.914063 -1.953125,0.78125 -5.234375,0.820312 -5.546875,-0.03906 -8.28125,-2.695312 -2.773438,-2.617188 -2.773438,-7.5 z"
       style="font-family:'Supria Sans Heavy';-inkscape-font-specification:'Supria Sans Heavy, '"
       id="path14791" />
    <path
       d="M 61.644531,38.741995 V 9.952932 h 7.070313 v 16.757813 q 1.914062,-1.25 3.828125,-3.203125 1.875,-1.953125 3.125,-4.375 h 7.617187 v 0.820312 q -0.898437,1.601563 -2.070312,3.125 -1.171875,1.484375 -2.382813,2.734375 -1.171875,1.25 -2.1875,2.109375 0.351563,0.390625 1.09375,1.445313 0.703125,1.054687 1.5625,2.382812 0.898438,1.328125 1.796875,2.617188 0.859375,1.328125 1.5625,2.304687 0.703125,0.976563 1.054688,1.289063 v 0.78125 h -7.539063 q -0.3125,-0.3125 -0.976562,-1.328125 -0.664063,-0.976563 -1.40625,-2.226563 -0.78125,-1.25 -1.40625,-2.265625 -0.664063,-1.054687 -1.015625,-1.445312 -0.507813,0.390625 -1.328125,0.859375 -0.820313,0.507812 -1.328125,0.820312 v 5.585938 h -7.070313 z"
       style="font-family:'Supria Sans Heavy';-inkscape-font-specification:'Supria Sans Heavy, '"
       id="path14793" />
    <path
       d="M 86.488281,38.741995 V 19.13262 h 5.234375 l 0.820313,2.96875 h 0.3125 q 0.46875,-0.742188 1.25,-1.484375 0.742187,-0.78125 1.953125,-1.328125 1.210937,-0.546875 2.96875,-0.546875 2.148436,0 3.828126,0.898437 1.64062,0.859375 2.57812,2.617188 h 0.27344 q 0.54688,-0.859375 1.32813,-1.679688 0.74218,-0.78125 1.95312,-1.289062 1.17188,-0.546875 2.96875,-0.546875 3.4375,0 5.46875,1.953125 1.99219,1.953125 2.07031,5.976562 v 12.070313 h -7.14843 V 27.25762 q 0,-2.109375 -0.70313,-2.890625 -0.74219,-0.742188 -1.99219,-0.703125 -1.32812,0.03906 -2.10937,0.703125 -0.78125,0.664062 -1.09375,1.523437 v 12.851563 h -7.031251 v -11.71875 q 0,-1.757813 -0.625,-2.578125 -0.625,-0.78125 -2.03125,-0.78125 -1.171875,0 -1.953125,0.625 -0.78125,0.585937 -1.25,1.40625 v 13.046875 h -7.070313 z"
       style="font-family:'Supria Sans Heavy';-inkscape-font-specification:'Supria Sans Heavy, '"
       id="path14795" />
    <path
       d="m 133.71484,34.28887 q 1.64063,0.03906 2.65625,-1.171875 1.01563,-1.210938 1.05469,-4.140625 -0.0391,-2.96875 -1.05469,-4.179688 -1.01562,-1.171875 -2.65625,-1.132812 -1.71875,-0.03906 -2.77343,1.132812 -1.01563,1.210938 -1.05469,4.179688 0.0391,2.929687 1.05469,4.140625 1.05468,1.210937 2.77343,1.171875 z m -10.9375,-5.3125 q 0,-3.085938 1.17188,-5.390625 1.17187,-2.265625 3.59375,-3.554688 2.42187,-1.289062 6.17187,-1.289062 3.67188,0 6.09375,1.289062 2.42188,1.289063 3.63282,3.554688 1.17187,2.304687 1.17187,5.390625 0,3.085937 -1.17187,5.351562 -1.21094,2.265625 -3.63282,3.554688 -2.42187,1.25 -6.09375,1.289062 -3.75,-0.03906 -6.17187,-1.289062 -2.42188,-1.289063 -3.59375,-3.554688 -1.17188,-2.265625 -1.17188,-5.351562 z"
       style="font-family:'Supria Sans Heavy';-inkscape-font-specification:'Supria Sans Heavy, '"
       id="path14797" />
    <path
       d="m 161.37109,32.765432 v -7.578125 q -0.54687,-0.703125 -1.36718,-1.09375 -0.82032,-0.429687 -1.71875,-0.429687 -1.09375,-0.03906 -1.99219,0.429687 -0.89844,0.429688 -1.44531,1.601563 -0.50782,1.132812 -0.54688,3.203125 0,2.070312 0.54688,3.242187 0.50781,1.171875 1.40625,1.679688 0.89843,0.46875 2.03125,0.46875 1.01562,-0.03906 1.83593,-0.46875 0.78125,-0.390625 1.25,-1.054688 z m 7.07032,-22.8125 v 28.789063 h -5.3125 l -0.97657,-2.304688 h -0.23437 q -0.42969,0.546875 -1.25,1.171875 -0.78125,0.625 -2.03125,1.09375 -1.25,0.429688 -3.00781,0.46875 -2.14844,0 -4.0625,-0.976562 -1.95313,-0.9375 -3.20313,-3.203125 -1.21094,-2.265625 -1.25,-6.09375 0.0391,-3.828125 1.28906,-6.054688 1.25,-2.226562 3.20313,-3.203125 1.91406,-0.9375 4.02344,-0.898437 2.03125,0.03906 3.39843,0.703125 1.36719,0.664062 2.10938,1.601562 h 0.23437 V 9.952932 h 7.07032 z"
       style="font-family:'Supria Sans Heavy';-inkscape-font-specification:'Supria Sans Heavy, '"
       id="path14799" />
    <path
       d="m 172.07422,32.41387 6.28906,-0.117188 q -0.0391,0.195313 -0.0391,0.3125 0,0.117188 0,0.234375 -0.0391,0.507813 0.27344,1.054688 0.27343,0.507812 1.05468,0.820312 0.74219,0.351563 2.22657,0.351563 1.44531,0 2.14843,-0.429688 0.70313,-0.46875 0.70313,-1.25 -0.0391,-0.742187 -0.74219,-1.132812 -0.66406,-0.351563 -1.83594,-0.585938 l -2.89062,-0.625 q -3.71094,-0.820312 -5.35156,-2.226562 -1.64063,-1.445313 -1.60157,-4.023438 0.0391,-2.8125 2.46094,-4.414062 2.42188,-1.601563 7.14844,-1.640625 2.96875,0 4.80469,0.585937 1.79687,0.546875 2.77343,1.445313 0.97657,0.859375 1.32813,1.835937 0.35156,0.976563 0.35156,1.796875 0,0.234375 0,0.46875 0,0.273438 -0.0781,0.507813 l -6.09375,0.07813 q 0,-0.195313 0.0391,-0.3125 0,-0.07813 0,-0.195313 0.0391,-0.742187 -0.66406,-1.40625 -0.66407,-0.664062 -2.57813,-0.703125 -1.44531,0 -2.10937,0.46875 -0.70313,0.429688 -0.70313,1.171875 0.0391,0.898438 0.89844,1.289063 0.82031,0.351562 1.95312,0.507812 l 3.24219,0.664063 q 2.53906,0.507812 3.98438,1.328125 1.44531,0.859375 2.07031,2.03125 0.58594,1.171875 0.58594,2.695312 0,1.71875 -1.05469,3.125 -1.05469,1.40625 -3.24219,2.1875 -2.14844,0.820313 -5.50781,0.859375 -3.16406,-0.03906 -5.11719,-0.625 -1.99219,-0.625 -3.00781,-1.5625 -1.05469,-0.9375 -1.44531,-1.953125 -0.35157,-1.015625 -0.35157,-1.875 0,-0.195312 0.0391,-0.429687 0,-0.195313 0.0391,-0.3125 z"
       style="font-family:'Supria Sans Heavy';-inkscape-font-specification:'Supria Sans Heavy, '"
       id="path14801" />
  </g>
</svg>
